<svg xmlns="http://www.w3.org/2000/svg" xmlns:xlink="http://www.w3.org/1999/xlink" xmlns:inkscape="http://www.inkscape.org/namespaces/inkscape" version="1.1" width="566.929" height="566.929" viewBox="0 0 566.929 566.929">
<defs>
<clipPath id="clip_1">
<path transform="matrix(1,0,0,-1,0,566.929)" d="M0 566.929H566.929V0H0Z"/>
</clipPath>
</defs>
<g inkscape:groupmode="layer" inkscape:label="Capa 1">
<path transform="matrix(1,0,0,-1,0,566.929)" d="M0 0H566.929V566.929H0Z" fill="#052169"/>
<g clip-path="url(#clip_1)">
<path transform="matrix(1,0,0,-1,279.936,238.49063)" d="M0 0 5.473 19.007H9.575C7.937 11.876 4.59 5.394 0 0M-9.677-8.536-1.747 19.007H2.392L-4.37-4.475C-6.033-5.956-7.808-7.312-9.677-8.536M-18.146-12.874-8.966 19.007H-4.828L-13.388-10.721C-14.924-11.528-16.512-12.246-18.146-12.874M-34.209-15.853C-38.258-15.853-42.183-15.312-45.918-14.302L-20.253-9.49-21.56-14.03C-25.575-15.21-29.817-15.853-34.209-15.853M-18.632-2.887-18.405-3.074-19.336-6.306-51.579-12.351C-53.241-11.651-54.854-10.857-56.409-9.97ZM-63.046-5.337-24.696 2.129-21.601-.431-60.057-7.641C-61.086-6.914-62.083-6.146-63.046-5.337M-77.992 19.007H-73.813L-70.493 2.629C-74.018 7.454-76.613 13-77.992 19.007M-66.616 19.007-62.342-2.082-59.422-1.584-63.595 19.007H-59.42L-55.394-.855-65.768-2.856C-66.016-2.611-66.267-2.369-66.51-2.117L-70.792 19.007ZM-48.971 19.007-55.147 12.831-56.399 19.007ZM-41.488 16.018-53.382 4.123-54.49 9.588-54.346 9.444-44.985 18.806-45.186 19.007H-45.102ZM-33.812 9.669-27.574 4.51-41.694 1.787ZM-52.487-.295-52.676 .642-39.196 14.122-36.104 11.564-46.881 .786ZM-34.788 19.007-16.422 3.816-17.512 .029-40.456 19.007ZM-24.474 19.007-14.438 10.706-15.528 6.919-30.143 19.007ZM-12.048 19.007-13.544 13.809-19.829 19.007ZM10.148 21.968H6.326 3.244-.894-3.976-8.114-11.195-23.409-27.318-33.722-37.631-44.036-47.945-56.999-60.02-64.195-67.216-71.392-74.413-78.566-81.563C-81.414 20.971-81.233 19.983-81.023 19.007-79.179 10.417-75.019 2.681-69.238-3.528-68.426-4.4-67.582-5.24-66.708-6.049-65.834-6.859-64.931-7.637-63.999-8.38-62.94-9.224-61.845-10.024-60.716-10.777-59.36-11.683-57.958-12.522-56.509-13.288-55.014-14.079-53.472-14.791-51.888-15.422-46.415-17.605-40.452-18.814-34.209-18.814-29.84-18.814-25.608-18.223-21.584-17.121-20.765-16.897-19.957-16.646-19.155-16.38-17.562-15.851-16.006-15.243-14.492-14.556-13.261-13.997-12.058-13.388-10.885-12.731-9.119-11.741-7.42-10.644-5.801-9.445-4.389-8.401-3.041-7.279-1.753-6.089 5.367 .49 10.499 9.191 12.605 19.007 12.815 19.983 12.996 20.971 13.145 21.968Z" fill="#79d4dd"/>
<path transform="matrix(1,0,0,-1,267.3062,189.0726)" d="M0 0H-11.455V-21.511C-11.455-23.177-11.404-25.164-11.304-27.45H0Z" fill="#ffffff"/>
<path transform="matrix(1,0,0,-1,238.7983,189.0726)" d="M0 0H-16.792V-27.45H-5.402V-26.132C-5.402-23.355-5.608-19.331-6.02-14.059H-5.728L1.215-27.45H14.374Z" fill="#ffffff"/>
<path transform="matrix(1,0,0,-1,244.6011,302.5624)" d="M0 0V19.746C0 22.153-.347 23.968-1.038 25.193-1.73 26.417-2.843 27.03-4.377 27.03-6.485 27.03-8.009 26.188-8.946 24.506-9.883 22.824-10.352 19.937-10.352 15.849V0H-22.845V36.201H-13.419L-11.854 31.727H-11.119C-10.054 33.431-8.579 34.709-6.693 35.562-4.808 36.414-2.641 36.84-.191 36.84 3.813 36.84 6.929 35.678 9.154 33.357 11.38 31.035 12.494 27.766 12.494 23.548V0Z" fill="#79d4dd"/>
<path transform="matrix(1,0,0,-1,280.7012,274.22154)" d="M0 0C-1.47 0-2.7-.463-3.691-1.39-4.682-2.317-5.263-3.77-5.432-5.751H5.303C5.26-4.006 4.765-2.609 3.818-1.566 2.87-.522 1.596 0 0 0M.734-28.98C-5.294-28.98-9.975-27.378-13.309-24.171-16.642-20.966-18.308-16.401-18.308-10.479-18.308-4.367-16.765 .324-13.676 3.594-10.587 6.864-6.178 8.5-.448 8.5 5.004 8.5 9.217 7.077 12.188 4.233 15.159 1.39 16.646-2.706 16.646-8.052V-13.611H-5.688C-5.603-15.636-4.863-17.222-3.468-18.372-2.072-19.522-.171-20.097 2.235-20.097 4.43-20.097 6.447-19.89 8.291-19.475 10.133-19.059 12.13-18.352 14.281-17.35V-26.328C12.321-27.329 10.299-28.021 8.211-28.404 6.123-28.788 3.631-28.98 .734-28.98" fill="#79d4dd"/>
<path transform="matrix(1,0,0,-1,330.7285,291.4432)" d="M0 0C0-3.877-1.32-6.807-3.961-8.787-6.603-10.768-10.395-11.759-15.336-11.759-18.02-11.759-20.353-11.614-22.334-11.327-24.313-11.039-26.338-10.512-28.404-9.746V.255C-26.466-.597-24.342-1.3-22.03-1.854-19.718-2.407-17.657-2.685-15.847-2.685-13.142-2.685-11.79-2.066-11.79-.831-11.79-.191-12.168 .378-12.924 .878-13.68 1.378-15.879 2.353-19.521 3.803-22.844 5.165-25.167 6.714-26.487 8.451-27.808 10.187-28.469 12.386-28.469 15.049-28.469 18.414-27.168 21.035-24.569 22.909-21.972 24.783-18.297 25.721-13.547 25.721-11.162 25.721-8.92 25.459-6.82 24.937-4.723 24.416-2.544 23.654-.287 22.654L-3.674 14.601C-5.335 15.347-7.093 15.981-8.946 16.502-10.798 17.024-12.312 17.286-13.482 17.286-15.528 17.286-16.55 16.785-16.55 15.783-16.55 15.166-16.193 14.639-15.479 14.202-14.766 13.766-12.705 12.877-9.297 11.534-6.763 10.49-4.872 9.468-3.625 8.467-2.38 7.465-1.465 6.289-.878 4.937-.292 3.583 0 1.937 0 0" fill="#79d4dd"/>
<path transform="matrix(1,0,0,-1,353.7598,293.329)" d="M0 0C1.683 0 3.695 .415 6.039 1.246V-7.86C4.356-8.584 2.753-9.101 1.23-9.409-.293-9.719-2.077-9.873-4.122-9.873-8.318-9.873-11.343-8.845-13.196-6.789-15.049-4.734-15.976-1.576-15.976 2.685V17.606H-20.353V22.686L-14.794 26.616-11.566 34.22H-3.386V26.967H5.496V17.606H-3.386V3.515C-3.386 1.171-2.258 0 0 0" fill="#79d4dd"/>
<path transform="matrix(1,0,0,-1,230.3862,327.90513)" d="M0 0H-8.63V15.481H0V13.883H-6.83V8.896H-.413V7.307H-6.83V1.609H0Z" fill="#79d4dd"/>
<path transform="matrix(1,0,0,-1,246.8906,323.786)" d="M0 0C0-1.362-.495-2.425-1.482-3.188-2.471-3.948-3.812-4.331-5.507-4.331-7.342-4.331-8.754-4.095-9.742-3.621V-1.884C-9.107-2.152-8.415-2.364-7.667-2.52-6.918-2.676-6.178-2.754-5.442-2.754-4.243-2.754-3.339-2.525-2.732-2.07-2.125-1.614-1.821-.981-1.821-.169-1.821 .368-1.929 .808-2.145 1.149-2.36 1.492-2.72 1.808-3.225 2.097-3.729 2.386-4.497 2.715-5.527 3.083-6.968 3.598-7.997 4.207-8.614 4.913-9.232 5.62-9.541 6.541-9.541 7.678-9.541 8.871-9.093 9.819-8.196 10.526-7.299 11.232-6.114 11.584-4.638 11.584-3.1 11.584-1.684 11.303-.392 10.738L-.953 9.171C-2.231 9.707-3.473 9.976-4.681 9.976-5.634 9.976-6.378 9.771-6.915 9.361-7.452 8.952-7.72 8.384-7.72 7.655-7.72 7.119-7.621 6.68-7.423 6.338-7.226 5.995-6.893 5.682-6.423 5.396-5.953 5.109-5.235 4.794-4.268 4.448-2.644 3.868-1.527 3.247-.917 2.584-.306 1.921 0 1.06 0 0" fill="#79d4dd"/>
<path transform="matrix(1,0,0,-1,259.1597,327.90513)" d="M0 0H-1.801V13.883H-6.704V15.481H4.902V13.883H0Z" fill="#79d4dd"/>
<path transform="matrix(1,0,0,-1,282.4189,312.4237)" d="M0 0V-10.017C0-11.781-.534-13.169-1.599-14.18-2.665-15.188-4.129-15.693-5.994-15.693-7.857-15.693-9.299-15.184-10.32-14.168-11.339-13.151-11.85-11.754-11.85-9.976V0H-10.049V-10.103C-10.049-11.394-9.696-12.386-8.991-13.078-8.284-13.77-7.246-14.116-5.876-14.116-4.572-14.116-3.565-13.767-2.859-13.072-2.153-12.377-1.801-11.38-1.801-10.08V0Z" fill="#79d4dd"/>
<path transform="matrix(1,0,0,-1,301.3066,320.079)" d="M0 0C0 2.019-.508 3.539-1.52 4.562-2.533 5.586-4.038 6.099-6.036 6.099H-8.651V-6.269H-6.46C-4.313-6.269-2.7-5.741-1.621-4.686-.541-3.631 0-2.069 0 0M1.906 .063C1.906-2.493 1.212-4.446-.176-5.797-1.562-7.149-3.559-7.826-6.163-7.826H-10.452V7.655H-5.708C-3.3 7.655-1.431 6.987-.096 5.654 1.238 4.32 1.906 2.456 1.906 .063" fill="#79d4dd"/>
<path transform="matrix(1,0,0,-1,0,566.929)" d="M311.001 254.505H312.801V239.024H311.001Z" fill="#79d4dd"/>
<path transform="matrix(1,0,0,-1,322.4863,320.1424)" d="M0 0C0-2.098 .447-3.687 1.34-4.771 2.233-5.854 3.529-6.397 5.232-6.397 6.946-6.397 8.242-5.856 9.117-4.776 9.993-3.696 10.431-2.104 10.431 0 10.431 2.082 9.994 3.662 9.123 4.738 8.251 5.814 6.961 6.354 5.252 6.354 3.537 6.354 2.233 5.812 1.34 4.728 .447 3.645 0 2.067 0 0M12.337 0C12.337-2.479 11.71-4.426 10.457-5.847 9.204-7.265 7.463-7.975 5.232-7.975 2.951-7.975 1.191-7.276-.047-5.883-1.286-4.488-1.905-2.521-1.905 .02-1.905 2.542-1.284 4.495-.042 5.882 1.201 7.269 2.966 7.962 5.252 7.962 7.477 7.962 9.213 7.256 10.463 5.845 11.713 4.433 12.337 2.484 12.337 0" fill="#79d4dd"/>
<path transform="matrix(1,0,0,-1,229.54,338.1805)" d="M0 0C-1.701 0-3.043-.567-4.03-1.7-5.014-2.833-5.506-4.385-5.506-6.354-5.506-8.38-5.032-9.945-4.082-11.05-3.133-12.155-1.779-12.708-.021-12.708 1.06-12.708 2.291-12.513 3.675-12.125V-13.702C2.602-14.104 1.277-14.307-.296-14.307-2.577-14.307-4.337-13.614-5.575-12.23-6.813-10.848-7.434-8.881-7.434-6.332-7.434-4.737-7.135-3.339-6.538-2.14-5.943-.938-5.081-.015-3.955 .636-2.829 1.284-1.504 1.608 .021 1.608 1.645 1.608 3.063 1.313 4.279 .719L3.516-.826C2.344-.275 1.172 0 0 0" fill="#79d4dd"/>
<path transform="matrix(1,0,0,-1,242.0308,344.51264)" d="M0 0C0-2.098 .447-3.687 1.339-4.771 2.233-5.855 3.529-6.397 5.232-6.397 6.946-6.397 8.242-5.856 9.118-4.776 9.993-3.697 10.431-2.104 10.431 0 10.431 2.082 9.994 3.662 9.123 4.738 8.251 5.814 6.96 6.354 5.252 6.354 3.537 6.354 2.233 5.812 1.339 4.728 .447 3.645 0 2.067 0 0M12.337 0C12.337-2.479 11.709-4.427 10.457-5.847 9.204-7.265 7.462-7.975 5.232-7.975 2.951-7.975 1.191-7.276-.047-5.883-1.286-4.488-1.906-2.521-1.906 .02-1.906 2.541-1.285 4.495-.042 5.882 1.201 7.269 2.966 7.962 5.252 7.962 7.477 7.962 9.212 7.256 10.462 5.845 11.712 4.433 12.337 2.483 12.337 0" fill="#79d4dd"/>
<path transform="matrix(1,0,0,-1,274.25,352.27534)" d="M0 0H-2.054L-10.514 12.993H-10.599C-10.487 11.468-10.431 10.07-10.431 8.801V0H-12.093V15.481H-10.059L-1.62 2.542H-1.535C-1.55 2.732-1.582 3.345-1.63 4.379-1.68 5.412-1.698 6.152-1.684 6.598V15.481H0Z" fill="#79d4dd"/>
<path transform="matrix(1,0,0,-1,287.6094,352.27534)" d="M0 0H-1.801V13.883H-6.704V15.481H4.901V13.883H0Z" fill="#79d4dd"/>
<path transform="matrix(1,0,0,-1,306.4219,345.73133)" d="M0 0-1.8 4.797C-2.033 5.403-2.273 6.149-2.521 7.031-2.676 6.354-2.897 5.608-3.188 4.797L-5.009 0ZM2.488-6.544 .561-1.62H-5.645L-7.551-6.544H-9.371L-3.251 9.001H-1.736L4.353-6.544Z" fill="#79d4dd"/>
<path transform="matrix(1,0,0,-1,319.04,344.9471)" d="M0 0V-5.792H3.229C4.479-5.792 5.419-5.55 6.052-5.067 6.684-4.584 6.999-3.826 6.999-2.795 6.999-1.836 6.676-1.13 6.03-.678 5.385-.226 4.401 0 3.08 0ZM0 1.524H2.965C4.235 1.524 5.149 1.725 5.707 2.122 6.266 2.521 6.544 3.193 6.544 4.14 6.544 5.009 6.233 5.635 5.612 6.02 4.991 6.404 4.002 6.596 2.646 6.596H0ZM-1.801 8.153H2.573C4.628 8.153 6.112 7.846 7.031 7.232 7.947 6.618 8.407 5.647 8.407 4.319 8.407 3.402 8.151 2.646 7.64 2.049 7.127 1.452 6.381 1.065 5.4 .89V.783C7.75 .381 8.927-.854 8.927-2.924 8.927-4.306 8.458-5.386 7.522-6.163 6.588-6.94 5.28-7.328 3.6-7.328H-1.801Z" fill="#79d4dd"/>
<path transform="matrix(1,0,0,-1,335.6279,352.27534)" d="M0 0V15.481H1.801V1.631H8.63V0Z" fill="#79d4dd"/>
<path transform="matrix(1,0,0,-1,359.8516,352.27534)" d="M0 0H-8.63V15.481H0V13.883H-6.829V8.896H-.412V7.307H-6.829V1.609H0Z" fill="#79d4dd"/>
<path transform="matrix(1,0,0,-1,356.6279,315.4071)" d="M0 0C.352 0 .648 .089 .648 .5 .648 .772 .498 .979 .148 .979H-.775V0ZM-1.145 1.296H.172C.694 1.296 1.015 1.011 1.015 .556 1.015 .222 .869-.055 .532-.152V-.162C.858-.224 .928-.46 .948-.739 .976-1.018 .959-1.315 1.114-1.514H.704C.599-1.399 .653-1.093 .602-.824 .562-.547 .491-.316 .137-.316H-.775V-1.514H-1.145Z" fill="#79d4dd"/>
<path transform="matrix(1,0,0,-1,353.6182,315.45793)" d="M0 0C0-1.623 1.308-2.929 2.919-2.934 4.532-2.929 5.834-1.623 5.837 0 5.834 1.618 4.53 2.928 2.919 2.933 1.308 2.928 0 1.618 0 0M-.345 0C-.345 1.807 1.118 3.277 2.919 3.277 4.721 3.277 6.181 1.807 6.181 0 6.181-1.813 4.721-3.274 2.919-3.274 1.118-3.274-.345-1.813-.345 0" fill="#79d4dd"/>
</g>
</g>
</svg>
